<?xml version="1.0" standalone="no"?>
<!DOCTYPE svg PUBLIC "-//W3C//DTD SVG 20010904//EN"
 "http://www.w3.org/TR/2001/REC-SVG-20010904/DTD/svg10.dtd">
<svg version="1.0" xmlns="http://www.w3.org/2000/svg"
 width="410.000000pt" height="349.000000pt" viewBox="0 0 410.000000 349.000000"
 preserveAspectRatio="xMidYMid meet">

<g transform="translate(0.000000,349.000000) scale(0.100000,-0.100000)"
fill="#000000" stroke="none">
<path d="M0 1745 l0 -1745 2050 0 2050 0 0 1745 0 1745 -2050 0 -2050 0 0
-1745z m1013 1221 c43 -17 68 -65 202 -391 144 -349 206 -488 216 -478 10 10
146 332 270 638 80 198 92 221 116 228 35 11 359 15 395 4 35 -9 42 -34 24
-84 -15 -44 -149 -331 -400 -855 -91 -191 -172 -371 -181 -400 -11 -37 -15
-96 -15 -210 l0 -159 -156 -272 c-198 -344 -324 -557 -329 -557 -4 0 24 69
109 270 42 100 45 120 14 120 -13 0 -29 4 -36 9 -23 14 -31 135 -32 462 l0
316 -51 109 c-28 60 -115 242 -192 404 -77 162 -164 347 -195 410 -202 427
-198 413 -131 437 49 17 330 17 372 -1z m2155 -475 c14 -7 22 -21 22 -37 0
-23 -47 -212 -204 -819 -30 -115 -79 -309 -111 -430 -164 -639 -207 -790 -229
-820 -8 -11 -33 -21 -67 -26 -82 -11 -441 -4 -467 10 -31 17 -55 96 -221 743
-39 153 -71 284 -71 291 0 15 40 85 302 537 212 366 210 362 215 357 2 -3 -39
-105 -91 -228 -53 -123 -96 -235 -96 -248 0 -24 52 -278 136 -661 65 -299 76
-344 85 -354 8 -9 20 29 39 129 17 87 265 1243 295 1377 37 161 42 175 73 187
37 15 360 8 390 -8z"/>
</g>
</svg>
